<svg width="179" height="181" viewBox="0 0 179 181" fill="none" xmlns="http://www.w3.org/2000/svg">
<path d="M31.0715 109.426C56.0942 98.9335 68.5488 110.441 93.4186 112.365C99.7683 112.857 107.241 109.713 113.331 110.599C116.394 111.045 114.449 118.956 113.666 120.749C107.677 141.877 67.3651 126.702 65.0173 133.25C65.3429 133.923 65.7325 134.458 66.2994 134.953C69.9492 138.14 78.9007 141.262 83.7214 142.761C127.001 156.222 141.9 112.064 164.108 109.78C168.202 109.359 171.286 110.517 174.42 113.082C175.837 114.898 176.137 114.623 175.98 116.355C172.165 120.727 145.278 148.668 141.58 151.017C130.948 162.648 110.547 172.815 94.0688 173.629C66.4523 174.994 44.9976 156.773 18.7633 167.749C9.55878 171.6 5.84497 178.944 1.84468 180.968L1.70603 179.573C-4.34241 154.998 5.74897 119.545 31.0715 109.426Z" fill="#F8623F"/>
<path d="M174.42 113.082C175.837 114.898 176.137 114.623 175.98 116.355C172.165 120.727 145.278 148.668 141.58 151.017C130.948 162.648 110.547 172.815 94.0688 173.629C66.4523 174.994 44.9976 156.773 18.7633 167.749C9.55879 171.6 5.84498 178.944 1.84469 180.967L1.70604 179.573C4.06101 169.317 8.28327 159.011 17.6219 153.131C38.4031 140.047 60.2586 155.26 80.8971 158.999C104.955 163.358 115.414 156.732 133.909 144.242C145.923 134.092 160.471 115.96 174.42 113.082Z" fill="#4269B4"/>
<path d="M174.42 113.082C175.837 114.898 176.137 114.623 175.98 116.355C172.165 120.727 145.278 148.668 141.58 151.017C141.915 147.65 155.859 138.31 157.134 134.203C155.529 131.591 153.426 134.499 151.922 129.545C149.692 130.589 139.101 141.602 134.829 144.484L133.909 144.242C145.923 134.092 160.471 115.96 174.42 113.082Z" fill="#4269B4"/>
<path d="M31.0715 109.426C56.0943 98.9335 68.5488 110.441 93.4187 112.365C99.7683 112.857 107.241 109.713 113.331 110.599C116.394 111.045 114.449 118.956 113.666 120.749C113.433 120.001 113.519 113.053 113.494 111.699L113.098 111.444C111.472 115.535 111.447 116.671 107.388 118.758C91.6154 126.876 74.3239 118.364 58.1744 116.394C54.0918 115.896 43.8526 117.735 41.9055 117.17C45.1754 116.133 46.6932 116.105 50.0758 115.993C50.2439 114.532 41.9477 112.548 40.407 108.091L40.3247 107.847C36.9213 107.005 34.0573 110.447 31.0715 109.426Z" fill="#F8623F"/>
<path d="M42.791 99.3479C34.5349 94.1548 18.8496 76.0083 14.0701 67.2995C7.82205 56.1036 6.36621 42.857 10.0333 30.5716C14.6914 14.8908 26.9076 4.15565 42.7864 0.801977C46.3396 0.051692 54.0685 -0.45882 57.5775 0.612508C66.8542 1.25459 79.9065 8.52224 84.3158 16.8627C81.847 15.7457 79.3579 13.1977 75.8935 11.565C73.6991 8.81586 64.2076 7.65005 60.7346 7.87508C62.8874 9.04953 61.9736 7.51695 63.3547 8.74727C62.065 10.0086 60.7514 11.435 59.3377 12.548C53.242 17.3489 59.4825 18.6168 50.5726 19.8781C36.9178 23.3334 28.7648 31.1644 28.3335 45.8663C33.5265 68.6207 59.2686 89.1822 76.5539 103.635C63.8795 98.8968 55.9099 98.4188 42.791 99.3479Z" fill="#F8623F"/>
<path d="M56.1811 7.73193L60.7346 7.87519C62.8874 9.04964 61.9735 7.51705 63.3547 8.74738C62.065 10.0087 60.7513 11.4351 59.3376 12.5481C53.242 17.349 59.4824 18.6169 50.5726 19.8782C36.9177 23.3335 28.7648 31.1645 28.3335 45.8664C28.145 45.5291 27.953 45.2177 27.8768 44.8296C24.8427 29.4125 35.3039 14.0664 49.8578 9.24826C51.7805 8.61176 54.1136 8.15965 56.1811 7.73193Z" fill="#4269B4"/>
<path d="M57.5775 0.61261C66.8542 1.2547 79.9065 8.52234 84.3158 16.8629C81.847 15.7458 79.3579 13.1978 75.8935 11.5651C73.6991 8.81596 64.2076 7.65015 60.7346 7.87518L56.1811 7.73193C63.9369 5.45313 64.3565 6.99129 71.3599 8.12155L71.7617 7.21685C71.7642 7.2138 71.7668 7.21125 71.7693 7.20871C68.0352 2.56985 63.02 3.40446 57.6024 1.18409L57.5775 0.61261Z" fill="#F8623F"/>
<path d="M88.0951 21.8222C96.5884 10.1941 105.834 3.0951 120.473 0.805133C131.471 -0.867641 142.677 1.93843 151.587 8.5955C157.367 12.8717 161.314 18.2349 163.925 24.8788C158.409 27.3663 151.815 30.5478 146.289 32.786C143.754 29.189 141.722 26.4997 138.105 24.1478C124.857 15.537 111.442 21.712 102.582 33.0161C99.047 37.5279 94.2263 45.9431 87.8208 44.8118C81.588 43.6166 77.5394 35.9878 73.7753 31.4596C72.7086 30.176 69.8157 27.6767 69.1147 26.5719C62.0625 21.8507 58.9689 20.4731 50.5726 19.8782C59.4825 18.6169 53.242 17.349 59.3377 12.5481C60.7514 11.4351 62.065 10.0087 63.3548 8.74737C61.9736 7.51705 62.8874 9.04963 60.7346 7.87518C64.2076 7.65015 73.6991 8.81596 75.8936 11.5651C79.3579 13.1978 81.847 15.7458 84.3158 16.8629L88.0951 21.8222Z" fill="#4269B4"/>
<path d="M60.7346 7.87523C64.2076 7.65019 73.6991 8.81601 75.8936 11.5652C73.2775 11.9071 67.0919 7.88336 65.632 9.65164C63.8007 11.871 59.3682 16.8512 58.9211 19.5801C61.972 22.5111 65.6569 20.75 69.1147 26.5719C62.0625 21.8507 58.9689 20.4731 50.5726 19.8783C59.4825 18.6169 53.242 17.349 59.3377 12.5481C60.7514 11.4351 62.065 10.0087 63.3548 8.74742C61.9736 7.51709 62.8874 9.04968 60.7346 7.87523Z" fill="#4269B4"/>
<path d="M166.811 30.2507C169.208 29.061 175.766 25.5529 178.199 25.5605L178.352 26.7172C178.382 38.8761 177.727 57.8548 177.016 70.1428L165.51 62.1782C155.087 79.8497 137.963 99.1859 121.098 111.21C116.222 100.074 106.839 105.122 96.7052 106.173C113.941 92.4847 139.487 70.4084 149.656 50.6928C145.979 47.7744 142.606 46.0478 138.989 43.4896C145.958 39.475 159.125 33.7567 166.811 30.2507Z" fill="#4269B4"/>
<path d="M166.811 30.2507C169.208 29.061 175.766 25.5529 178.199 25.5605L178.352 26.7172C174.11 29.2962 165.353 47.8791 162.457 49.9445C164.195 45.1939 167.039 36.5339 167.954 31.4658C167.527 30.6748 167.598 30.6545 166.811 30.2507Z" fill="#4269B4"/>
<path d="M126.046 115.689C130.13 111.535 136.012 107.175 140.609 103.48C144.495 100.355 155.391 96.517 157.306 103.948C156.682 105.996 142.56 114.802 140.193 117.85C139.614 118.593 133.716 123.42 132.751 124.072C129.784 127.934 119.782 134.333 115.15 136.214C113.067 135.484 112.767 134.862 111.995 132.935C119.97 126.712 116.831 121.813 126.046 115.689Z" fill="#4269B4"/>
<path d="M111.995 132.934C119.97 126.712 116.831 121.813 126.046 115.688C124.908 118.622 122.688 119.008 121.428 121.053C119.848 123.625 118.939 126.611 117.187 129.26C118.081 130.6 118.299 130.692 119.752 131.412C124.842 132.031 129.19 123.964 132.751 124.072C129.784 127.934 119.782 134.333 115.15 136.213C113.067 135.483 112.767 134.862 111.995 132.934Z" fill="#4269B4"/>
<path d="M98.0005 139.456C103.99 137.572 106.677 136.291 111.995 132.934C112.767 134.862 113.067 135.483 115.15 136.213C109.623 138.649 103.949 139.24 98.0005 139.456Z" fill="#4269B4"/>
</svg>
