<svg width="70" height="70" viewBox="0 0 70 70" fill="none" xmlns="http://www.w3.org/2000/svg">
<path d="M12.0424 42.3269C21.7406 38.2684 26.5676 42.7197 36.2065 43.464C38.6675 43.654 41.5635 42.438 43.9241 42.7808C45.1112 42.9532 44.3572 46.0131 44.054 46.7069C41.7328 54.8794 26.1089 49.0094 25.1989 51.5424C25.3251 51.8027 25.4761 52.0094 25.6959 52.201C27.1104 53.4338 30.5798 54.6416 32.4481 55.2215C49.222 60.4283 54.9964 43.3475 63.6039 42.4641C65.1907 42.3012 66.3857 42.7492 67.6005 43.7411C68.1498 44.4437 68.2659 44.3374 68.2049 45.0073C66.7263 46.6983 56.3057 57.5061 54.8724 58.4149C50.7518 62.9137 42.8452 66.8465 36.4585 67.1615C25.7551 67.6895 17.4398 60.6413 7.27213 64.8869C3.70472 66.3767 2.26535 69.2172 0.714947 70L0.66121 69.4606C-1.683 59.9546 2.22814 46.241 12.0424 42.3269Z" fill="white"/>
<path d="M67.6005 43.7411C68.1498 44.4437 68.2659 44.3374 68.2049 45.0073C66.7263 46.6983 56.3057 57.5061 54.8724 58.4149C50.7518 62.9137 42.8452 66.8465 36.4585 67.1615C25.7551 67.6895 17.4398 60.6413 7.27213 64.8869C3.70472 66.3767 2.26535 69.2172 0.714946 70L0.661209 69.4606C1.57393 65.4935 3.21036 61.5069 6.82974 59.2327C14.884 54.1714 23.3546 60.056 31.3535 61.5025C40.6776 63.1886 44.7313 60.6254 51.8996 55.7943C56.5557 51.8682 62.1942 44.8546 67.6005 43.7411Z" fill="white"/>
<path d="M67.6005 43.7411C68.1498 44.4437 68.2659 44.3374 68.2049 45.0073C66.7263 46.6983 56.3057 57.5061 54.8724 58.4149C55.0023 57.1125 60.4066 53.4996 60.9008 51.9112C60.2786 50.9007 59.4636 52.0256 58.8808 50.1092C58.0165 50.5132 53.9116 54.7729 52.2559 55.8878L51.8996 55.7943C56.5557 51.8682 62.1943 44.8546 67.6005 43.7411Z" fill="white"/>
<path d="M12.0424 42.3269C21.7406 38.2684 26.5676 42.7197 36.2065 43.464C38.6675 43.654 41.5635 42.438 43.9241 42.7808C45.1112 42.9532 44.3572 46.0131 44.054 46.7069C43.9635 46.4177 43.9969 43.7299 43.9871 43.206L43.8335 43.1076C43.2035 44.6901 43.1937 45.1293 41.6206 45.9369C35.5076 49.077 28.8059 45.7844 22.5468 45.0222C20.9645 44.8296 16.9961 45.5411 16.2414 45.3226C17.5087 44.9212 18.097 44.9106 19.408 44.8672C19.4732 44.3021 16.2578 43.5348 15.6606 41.8106L15.6288 41.7162C14.3097 41.3905 13.1997 42.7221 12.0424 42.3269Z" fill="white"/>
<path d="M16.5846 38.4288C13.3848 36.42 7.3056 29.4008 5.45319 26.0321C3.03161 21.7014 2.46737 16.5775 3.88862 11.8254C5.69398 5.7599 10.4287 1.60745 16.5828 0.310215C17.96 0.0199969 20.9555 -0.177474 22.3155 0.236926C25.9108 0.485291 30.9696 3.29649 32.6785 6.52268C31.7217 6.0906 30.757 5.105 29.4143 4.47348C28.5638 3.41007 24.8851 2.95912 23.5391 3.04616C24.3734 3.50045 24.0193 2.90763 24.5546 3.38353C24.0547 3.87142 23.5456 4.42318 22.9977 4.85369C20.6351 6.71073 23.0538 7.20117 19.6006 7.68906C14.3083 9.02559 11.1484 12.0547 10.9813 17.7416C12.994 26.5432 22.9709 34.4966 29.6702 40.0871C24.7579 38.2543 21.6691 38.0694 16.5846 38.4288Z" fill="white"/>
<path d="M21.7743 2.99075L23.5391 3.04616C24.3734 3.50045 24.0192 2.90763 24.5546 3.38353C24.0547 3.87142 23.5456 4.42318 22.9976 4.85369C20.6351 6.71073 23.0538 7.20117 19.6005 7.68906C14.3083 9.02559 11.1484 12.0547 10.9813 17.7416C10.9082 17.6111 10.8338 17.4906 10.8043 17.3405C9.62834 11.377 13.6828 5.441 19.3235 3.57728C20.0687 3.33108 20.973 3.1562 21.7743 2.99075Z" fill="white"/>
<path d="M22.3155 0.236927C25.9109 0.485292 30.9696 3.29649 32.6785 6.52268C31.7217 6.0906 30.757 5.105 29.4143 4.47348C28.5638 3.41007 24.8851 2.95912 23.5391 3.04616L21.7743 2.99075C24.7802 2.10929 24.9428 2.70427 27.6572 3.14146L27.8129 2.79151C27.8139 2.79033 27.8149 2.78935 27.8158 2.78836C26.3686 0.994005 24.4248 1.31684 22.3251 0.45798L22.3155 0.236927Z" fill="white"/>
<path d="M34.1432 8.44102C37.435 3.94314 41.0182 1.19717 46.6922 0.311388C50.9546 -0.335658 55.2977 0.749759 58.7509 3.32478C60.9913 4.97884 62.5211 7.0534 63.533 9.62331C61.3949 10.5855 58.8395 11.8162 56.6974 12.6819C55.715 11.2905 54.9275 10.2503 53.5258 9.34056C48.3912 6.00983 43.1917 8.39838 39.7582 12.7709C38.3879 14.5161 36.5196 17.7712 34.0369 17.3336C31.6213 16.8713 30.0522 13.9204 28.5933 12.1689C28.1799 11.6723 27.0586 10.7056 26.787 10.2782C24.0537 8.45202 22.8547 7.91914 19.6006 7.68905C23.0538 7.20116 20.6351 6.71072 22.9977 4.85368C23.5456 4.42317 24.0547 3.87141 24.5546 3.38353C24.0193 2.90762 24.3734 3.50044 23.5391 3.04615C24.8851 2.95911 28.5638 3.41006 29.4143 4.47347C30.757 5.10499 31.7217 6.09059 32.6785 6.52267L34.1432 8.44102Z" fill="white"/>
<path d="M23.5391 3.04616C24.8851 2.95911 28.5638 3.41006 29.4143 4.47348C28.4004 4.60571 26.003 3.04931 25.4372 3.73329C24.7274 4.59176 23.0095 6.51816 22.8362 7.57371C24.0187 8.70747 25.4468 8.02623 26.787 10.2782C24.0537 8.45203 22.8547 7.91915 19.6006 7.68905C23.0538 7.20117 20.6351 6.71073 22.9977 4.85369C23.5456 4.42317 24.0547 3.87142 24.5546 3.38353C24.0193 2.90763 24.3734 3.50045 23.5391 3.04616Z" fill="white"/>
<path d="M64.6513 11.7012C65.5805 11.241 68.1222 9.88406 69.0652 9.88701L69.1243 10.3344C69.1361 15.0376 68.8821 22.3787 68.6065 27.1319L64.1473 24.0511C60.1073 30.8866 53.4706 38.3661 46.9343 43.017C45.0443 38.7095 41.408 40.6623 37.4803 41.0686C44.1603 35.774 54.0613 27.2346 58.0027 19.6084C56.5774 18.4796 55.2701 17.8117 53.8683 16.8222C56.5695 15.2693 61.6725 13.0574 64.6513 11.7012Z" fill="white"/>
<path d="M64.6513 11.7012C65.5805 11.241 68.1222 9.88406 69.0652 9.88701L69.1243 10.3344C67.4804 11.332 64.0862 18.52 62.964 19.319C63.6374 17.4814 64.7399 14.1316 65.0943 12.1712C64.9289 11.8653 64.9564 11.8574 64.6513 11.7012Z" fill="white"/>
<path d="M48.8519 44.7495C50.4348 43.1428 52.7146 41.4565 54.4963 40.0272C56.0025 38.8184 60.2255 37.3337 60.9677 40.208C60.7255 41.0002 55.2524 44.4066 54.3349 45.5854C54.1105 45.873 51.8247 47.7401 51.4507 47.9924C50.3009 49.4863 46.4244 51.9615 44.6289 52.6887C43.8217 52.4064 43.7055 52.1661 43.4063 51.4204C46.4973 49.0135 45.2806 47.1184 48.8519 44.7495Z" fill="white"/>
<path d="M43.4063 51.4204C46.4973 49.0135 45.2806 47.1184 48.8519 44.7495C48.4109 45.884 47.5506 46.0334 47.0623 46.8246C46.45 47.8193 46.0976 48.9742 45.4184 49.999C45.7649 50.5173 45.8495 50.5531 46.4126 50.8315C48.3853 51.0708 50.0706 47.9507 51.4507 47.9924C50.3009 49.4863 46.4244 51.9615 44.6289 52.6887C43.8217 52.4064 43.7055 52.166 43.4063 51.4204Z" fill="white"/>
<path d="M37.9823 53.9431C40.3035 53.2141 41.345 52.7186 43.4063 51.4204C43.7055 52.166 43.8217 52.4064 44.6289 52.6887C42.4869 53.6309 40.2878 53.8594 37.9823 53.9431Z" fill="white"/>
</svg>
